[img]http://img11.imageshack.us/img11/3302/b4a8fbac0b3da00291c4b9a.jpg[/img]

[b][code]


Format : AVI
Format/Info : Audio Video Interleave
File size : 1.79 GiB
Duration : 1h 45mn
Overall bit rate : 2 426 Kbps
Writing application : VirtualDubMod 1.5.10.2 (build 2540/release)
Writing library : VirtualDubMod build 2540/release

Video
ID : 0
Format : MPEG-4 Visual
Format profile : Advanced Simple@L5
Format settings, BVOP : 2
Format settings, QPel : No
Format settings, GMC : No warppoints
Format settings, Matrix : Default (H.263)
Muxing mode : Packed bitstream
Codec ID : XVID
Codec ID/Hint : XviD
Duration : 1h 45mn
Bit rate : 2 033 Kbps
Width : 720 pixels
Height : 304 pixels
Display aspect ratio : 2.35:1
Frame rate : 23.976 fps
Color space : YUV
Chroma subsampling : 4:2:0
Bit depth : 8 bits
Scan type : Progressive
Compression mode : Lossy
Bits/(Pixel*Frame) : 0.387
Stream size : 1.50 GiB (84%)
Writing library : XviD 64

Audio
ID : 1
Format : AC-3
Format/Info : Audio Coding 3
Mode extension : CM (complete main)
Format settings, Endianness : Big
Codec ID : 2000
Duration : 1h 45mn
Bit rate mode : Constant
Bit rate : 384 Kbps
Channel(s) : 6 channels
Channel positions : Front: L C R, Side: L R, LFE
Sampling rate : 48.0 KHz
Bit depth : 16 bits
Compression mode : Lossy
Stream size : 291 MiB (16%)
Alignment : Split accross interleaves
Interleave, duration : 42 ms (1.00 video frame)
Interleave, preload duration : 500 ms

 
http://www.imdb.com/title/tt1524137/


Ratings: 6.6/10 from 9,693 users Metascore: 51/100 
Reviews: 72 user | 189 critic | 38 from Metacritic.com

To protect his brother-in-law from a drug lord, a former smuggler heads to Panama to score millions of dollars in counterfeit bills.

Director:
Baltasar Kormákur
Writers:
Aaron Guzikowski (screenplay), Arnaldur Indriðason (film "Reykjavik-Rotterdam"), and 1 more credit »
Stars:
Mark Wahlberg, Giovanni Ribisi and Kate Beckinsale 



Source Used



Contraband 2012 720p BluRay X264-AMIABLE...Thanks




Enjoy



[/code][/b]

[img]http://img267.imageshack.us/img267/9584/vlcsnap2012041021h25m40.png[/img]
[img]http://img546.imageshack.us/img546/4813/vlcsnap2012041021h08m34.png[/img]
